<svg width="23" height="16" viewBox="0 0 23 16" fill="none" xmlns="http://www.w3.org/2000/svg">
<mask id="mask0_45_1581" style="mask-type:luminance" maskUnits="userSpaceOnUse" x="0" y="0" width="23" height="16">
<path d="M20.7792 0.00793457H1.5984C0.715629 0.00793457 0 0.723563 0 1.60634V14.3935C0 15.2763 0.715629 15.992 1.5984 15.992H20.7792C21.662 15.992 22.3776 15.2763 22.3776 14.3935V1.60634C22.3776 0.723563 21.662 0.00793457 20.7792 0.00793457Z" fill="white"/>
</mask>
<g mask="url(#mask0_45_1581)">
<path d="M20.7792 0.00793457H1.5984C0.715629 0.00793457 0 0.723563 0 1.60634V14.3935C0 15.2763 0.715629 15.992 1.5984 15.992H20.7792C21.662 15.992 22.3776 15.2763 22.3776 14.3935V1.60634C22.3776 0.723563 21.662 0.00793457 20.7792 0.00793457Z" fill="white"/>
<mask id="mask1_45_1581" style="mask-type:alpha" maskUnits="userSpaceOnUse" x="0" y="0" width="23" height="16">
<path d="M20.7792 0.00793457H1.5984C0.715629 0.00793457 0 0.723563 0 1.60634V14.3935C0 15.2763 0.715629 15.992 1.5984 15.992H20.7792C21.662 15.992 22.3776 15.2763 22.3776 14.3935V1.60634C22.3776 0.723563 21.662 0.00793457 20.7792 0.00793457Z" fill="white"/>
</mask>
<g mask="url(#mask1_45_1581)">
<path fill-rule="evenodd" clip-rule="evenodd" d="M22.3776 0.00793457H0V1.07353H22.3776V0.00793457ZM22.3776 2.13914H0V3.20474H22.3776V2.13914ZM0 4.27034H22.3776V5.33594H0V4.27034ZM22.3776 6.40154H0V7.46714H22.3776V6.40154ZM0 8.53277H22.3776V9.59834H0V8.53277ZM22.3776 10.6639H0V11.7296H22.3776V10.6639ZM0 12.7951H22.3776V13.8607H0V12.7951ZM22.3776 14.9264H0V15.992H22.3776V14.9264Z" fill="#D02F44"/>
<path d="M9.59041 0.00793457H0V7.46714H9.59041V0.00793457Z" fill="#46467F"/>
<g filter="url(#filter0_d_45_1581)">
<path fill-rule="evenodd" clip-rule="evenodd" d="M2.13116 1.60628C2.13116 1.90054 1.89261 2.13908 1.59835 2.13908C1.3041 2.13908 1.06555 1.90054 1.06555 1.60628C1.06555 1.31203 1.3041 1.07349 1.59835 1.07349C1.89261 1.07349 2.13116 1.31203 2.13116 1.60628ZM4.26236 1.60628C4.26236 1.90054 4.02382 2.13908 3.72956 2.13908C3.4353 2.13908 3.19676 1.90054 3.19676 1.60628C3.19676 1.31203 3.4353 1.07349 3.72956 1.07349C4.02382 1.07349 4.26236 1.31203 4.26236 1.60628ZM5.86076 2.13908C6.15501 2.13908 6.39356 1.90054 6.39356 1.60628C6.39356 1.31203 6.15501 1.07349 5.86076 1.07349C5.5665 1.07349 5.32796 1.31203 5.32796 1.60628C5.32796 1.90054 5.5665 2.13908 5.86076 2.13908ZM8.52472 1.60628C8.52472 1.90054 8.28624 2.13908 7.99196 2.13908C7.6977 2.13908 7.45916 1.90054 7.45916 1.60628C7.45916 1.31203 7.6977 1.07349 7.99196 1.07349C8.28624 1.07349 8.52472 1.31203 8.52472 1.60628ZM2.66395 3.20468C2.95821 3.20468 3.19676 2.96615 3.19676 2.67189C3.19676 2.37763 2.95821 2.13908 2.66395 2.13908C2.3697 2.13908 2.13116 2.37763 2.13116 2.67189C2.13116 2.96615 2.3697 3.20468 2.66395 3.20468ZM5.32796 2.67189C5.32796 2.96615 5.08942 3.20468 4.79516 3.20468C4.5009 3.20468 4.26236 2.96615 4.26236 2.67189C4.26236 2.37763 4.5009 2.13908 4.79516 2.13908C5.08942 2.13908 5.32796 2.37763 5.32796 2.67189ZM6.92636 3.20468C7.22062 3.20468 7.45916 2.96615 7.45916 2.67189C7.45916 2.37763 7.22062 2.13908 6.92636 2.13908C6.63211 2.13908 6.39356 2.37763 6.39356 2.67189C6.39356 2.96615 6.63211 3.20468 6.92636 3.20468ZM8.52472 3.73749C8.52472 4.03174 8.28624 4.27029 7.99196 4.27029C7.6977 4.27029 7.45916 4.03174 7.45916 3.73749C7.45916 3.44323 7.6977 3.20468 7.99196 3.20468C8.28624 3.20468 8.52472 3.44323 8.52472 3.73749ZM5.86076 4.27029C6.15501 4.27029 6.39356 4.03174 6.39356 3.73749C6.39356 3.44323 6.15501 3.20468 5.86076 3.20468C5.5665 3.20468 5.32796 3.44323 5.32796 3.73749C5.32796 4.03174 5.5665 4.27029 5.86076 4.27029ZM4.26236 3.73749C4.26236 4.03174 4.02382 4.27029 3.72956 4.27029C3.4353 4.27029 3.19676 4.03174 3.19676 3.73749C3.19676 3.44323 3.4353 3.20468 3.72956 3.20468C4.02382 3.20468 4.26236 3.44323 4.26236 3.73749ZM1.59835 4.27029C1.89261 4.27029 2.13116 4.03174 2.13116 3.73749C2.13116 3.44323 1.89261 3.20468 1.59835 3.20468C1.3041 3.20468 1.06555 3.44323 1.06555 3.73749C1.06555 4.03174 1.3041 4.27029 1.59835 4.27029ZM3.19676 4.80308C3.19676 5.09735 2.95821 5.33589 2.66395 5.33589C2.3697 5.33589 2.13116 5.09735 2.13116 4.80308C2.13116 4.50883 2.3697 4.27029 2.66395 4.27029C2.95821 4.27029 3.19676 4.50883 3.19676 4.80308ZM4.79516 5.33589C5.08942 5.33589 5.32796 5.09735 5.32796 4.80308C5.32796 4.50883 5.08942 4.27029 4.79516 4.27029C4.5009 4.27029 4.26236 4.50883 4.26236 4.80308C4.26236 5.09735 4.5009 5.33589 4.79516 5.33589ZM7.45916 4.80308C7.45916 5.09735 7.22062 5.33589 6.92636 5.33589C6.63211 5.33589 6.39356 5.09735 6.39356 4.80308C6.39356 4.50883 6.63211 4.27029 6.92636 4.27029C7.22062 4.27029 7.45916 4.50883 7.45916 4.80308ZM7.99196 6.40149C8.28624 6.40149 8.52472 6.16295 8.52472 5.86869C8.52472 5.57443 8.28624 5.33589 7.99196 5.33589C7.6977 5.33589 7.45916 5.57443 7.45916 5.86869C7.45916 6.16295 7.6977 6.40149 7.99196 6.40149ZM6.39356 5.86869C6.39356 6.16295 6.15501 6.40149 5.86076 6.40149C5.5665 6.40149 5.32796 6.16295 5.32796 5.86869C5.32796 5.57443 5.5665 5.33589 5.86076 5.33589C6.15501 5.33589 6.39356 5.57443 6.39356 5.86869ZM3.72956 6.40149C4.02382 6.40149 4.26236 6.16295 4.26236 5.86869C4.26236 5.57443 4.02382 5.33589 3.72956 5.33589C3.4353 5.33589 3.19676 5.57443 3.19676 5.86869C3.19676 6.16295 3.4353 6.40149 3.72956 6.40149ZM2.13116 5.86869C2.13116 6.16295 1.89261 6.40149 1.59835 6.40149C1.3041 6.40149 1.06555 6.16295 1.06555 5.86869C1.06555 5.57443 1.3041 5.33589 1.59835 5.33589C1.89261 5.33589 2.13116 5.57443 2.13116 5.86869Z" fill="url(#paint0_linear_45_1581)"/>
</g>
</g>
</g>
<defs>
<filter id="filter0_d_45_1581" x="1.06555" y="1.07349" width="7.45923" height="33.8994" filterUnits="userSpaceOnUse" color-interpolation-filters="sRGB">
<feFlood flood-opacity="0" result="BackgroundImageFix"/>
<feColorMatrix in="SourceAlpha" type="matrix" values="0 0 0 0 0 0 0 0 0 0 0 0 0 0 0 0 0 0 127 0" result="hardAlpha"/>
<feOffset dy="28.5714"/>
<feColorMatrix type="matrix" values="0 0 0 0 0 0 0 0 0 0 0 0 0 0 0 0 0 0 0.06 0"/>
<feBlend mode="normal" in2="BackgroundImageFix" result="effect1_dropShadow_45_1581"/>
<feBlend mode="normal" in="SourceGraphic" in2="effect1_dropShadow_45_1581" result="shape"/>
</filter>
<linearGradient id="paint0_linear_45_1581" x1="1.06555" y1="1.07349" x2="1.06555" y2="6.40149" gradientUnits="userSpaceOnUse">
<stop stop-color="white"/>
<stop offset="1" stop-color="#F0F0F0"/>
</linearGradient>
</defs>
</svg>
