<svg width="24" height="24" viewBox="0 0 24 24" fill="none" xmlns="http://www.w3.org/2000/svg">
<path d="M4.03954 18.7499H14.1545C14.0842 20.1059 13.2103 20.9697 12.005 20.9697C10.7895 20.9697 9.92571 20.1059 9.84536 18.7499H8.27841C8.35877 20.6785 9.87548 22.376 12.005 22.376C14.1244 22.376 15.6411 20.6785 15.7215 18.7499H19.9603C20.9145 18.7499 21.4771 18.2577 21.4771 17.5345C21.4771 16.53 20.4625 15.626 19.5887 14.732C18.9257 14.0389 18.7449 12.6126 18.6746 11.4575C18.5943 7.49988 17.5797 4.93848 14.8978 3.97419C14.5663 2.66842 13.4815 1.62378 12.005 1.62378C10.5183 1.62378 9.44357 2.66842 9.10204 3.97419C6.4302 4.93848 5.40561 7.49988 5.33533 11.4575C5.25497 12.6126 5.08418 14.0389 4.4112 14.732C3.54737 15.626 2.52283 16.53 2.52283 17.5345C2.52283 18.2577 3.09536 18.7499 4.03954 18.7499ZM4.48153 17.2331V17.1126C4.66234 16.8113 5.25497 16.2287 5.78734 15.6361C6.50048 14.8325 6.84201 13.5468 6.9324 11.578C7.01276 7.19855 8.31857 5.79228 10.0462 5.33024C10.2974 5.26998 10.428 5.13939 10.438 4.88825C10.4782 3.83358 11.0708 3.10034 12.005 3.10034C12.9291 3.10034 13.5318 3.83358 13.5619 4.88825C13.5719 5.13939 13.7125 5.26998 13.9637 5.33024C15.6813 5.79228 16.9871 7.19855 17.0775 11.578C17.1579 13.5468 17.4994 14.8325 18.2226 15.6361C18.7449 16.2287 19.3476 16.8113 19.5284 17.1126V17.2331H4.48153Z" fill="white"/>
</svg>
