<svg width="23" height="24" viewBox="0 0 23 24" fill="none" xmlns="http://www.w3.org/2000/svg">
<path d="M13.0306 10.6183C12.8395 10.4271 12.6127 10.2754 12.3629 10.172C12.1132 10.0685 11.8455 10.0152 11.5752 10.0152C11.3049 10.0152 11.0373 10.0685 10.7875 10.172C10.5378 10.2754 10.3109 10.4271 10.1198 10.6183L9.61528 11.1228L9.11073 10.6183C8.91956 10.4271 8.69259 10.2754 8.44278 10.1719C8.19298 10.0684 7.92524 10.0151 7.65484 10.0151C7.38445 10.0151 7.11671 10.0684 6.8669 10.1719C6.6171 10.2754 6.39013 10.4271 6.19896 10.6183C5.8133 11.0045 5.59668 11.5279 5.59668 12.0737C5.59668 12.6195 5.8133 13.1429 6.19896 13.5291L9.60757 16.9377L9.61528 16.93L9.62298 16.9377L13.0306 13.5291C13.2218 13.338 13.3735 13.1111 13.477 12.8614C13.5805 12.6117 13.6337 12.344 13.6337 12.0737C13.6337 11.8034 13.5805 11.5357 13.477 11.286C13.3735 11.0363 13.2218 10.8094 13.0306 10.6183Z" fill="#5A5265"/>
<path d="M14.6877 4.41736H4.54373C3.35838 4.41736 2.39746 5.37828 2.39746 6.56363V20.4532C2.39746 21.6386 3.35838 22.5995 4.54373 22.5995H14.6877C15.8731 22.5995 16.834 21.6386 16.834 20.4532V6.56363C16.834 5.37828 15.8731 4.41736 14.6877 4.41736Z" stroke="#5A5265" stroke-width="2" stroke-linecap="round" stroke-linejoin="round"/>
<path d="M16.8329 19.7232L17.2845 19.7482C17.8522 19.7793 18.4091 19.5838 18.833 19.2047C19.2568 18.8256 19.513 18.2939 19.5453 17.7262L20.3156 3.86063C20.3466 3.29275 20.1512 2.73574 19.7721 2.31174C19.3931 1.88775 18.8614 1.63137 18.2936 1.59882L8.15822 1.03071C7.59037 0.999449 7.03333 1.19484 6.60943 1.57397C6.18552 1.95309 5.92942 2.48497 5.89737 3.05277L5.82227 4.41141" stroke="#5A5265" stroke-width="2" stroke-linecap="round" stroke-linejoin="round"/>
</svg>
