<svg width="25" height="24" viewBox="0 0 25 24" fill="none" xmlns="http://www.w3.org/2000/svg">
<path d="M16.5083 2.40002H8.242C5.22274 2.40002 2.77515 4.84762 2.77515 7.86688V16.1332C2.77515 19.1524 5.22274 21.6 8.242 21.6H16.5083C19.5275 21.6 21.9751 19.1524 21.9751 16.1332V7.86688C21.9751 4.84762 19.5275 2.40002 16.5083 2.40002Z" stroke="#5A5265" stroke-width="2" stroke-linecap="round" stroke-linejoin="round"/>
<path d="M16.45 5.69995C16.0092 5.69995 15.5784 5.83065 15.2119 6.07553C14.8454 6.32041 14.5598 6.66847 14.3911 7.07569C14.2224 7.4829 14.1783 7.93099 14.2643 8.36329C14.3502 8.7956 14.5625 9.19269 14.8742 9.50436C15.1858 9.81603 15.5829 10.0283 16.0152 10.1143C16.4475 10.2003 16.8956 10.1561 17.3028 9.98745C17.7101 9.81878 18.0581 9.53314 18.303 9.16665C18.5479 8.80016 18.6786 8.36929 18.6786 7.92852C18.6786 7.33747 18.4438 6.77062 18.0258 6.35268C17.6079 5.93475 17.0411 5.69995 16.45 5.69995Z" fill="#5A5265"/>
<path d="M12.375 14.2252C13.604 14.2252 14.6002 13.229 14.6002 12C14.6002 10.7711 13.604 9.7749 12.375 9.7749C11.1461 9.7749 10.1499 10.7711 10.1499 12C10.1499 13.229 11.1461 14.2252 12.375 14.2252Z" fill="#5A5265"/>
<path d="M8.30035 13.8497C7.85958 13.8497 7.42871 13.9804 7.06222 14.2253C6.69573 14.4702 6.41009 14.8182 6.24142 15.2255C6.07274 15.6327 6.02861 16.0808 6.1146 16.5131C6.20059 16.9454 6.41284 17.3425 6.72451 17.6541C7.03618 17.9658 7.43328 18.1781 7.86558 18.2641C8.29788 18.35 8.74597 18.3059 9.15319 18.1372C9.56041 17.9686 9.90846 17.6829 10.1533 17.3164C10.3982 16.9499 10.5289 16.5191 10.5289 16.0783C10.5289 15.4872 10.2941 14.9204 9.87619 14.5025C9.45825 14.0845 8.8914 13.8497 8.30035 13.8497Z" fill="#5A5265"/>
</svg>
