
<svg width="9" height="16" viewBox="0 0 9 16" fill="none" xmlns="http://www.w3.org/2000/svg">
<path d="M1.77886 15.6933C1.58513 15.8918 1.33855 16 1.04795 16C0.466732 16 0 15.531 0 14.9357C0 14.6381 0.123288 14.3675 0.325831 14.1601L6.49022 7.99098L0.325831 1.83991C0.123288 1.63247 0 1.35287 0 1.06426C0 0.468997 0.466732 0 1.04795 0C1.33855 0 1.58513 0.10823 1.77886 0.306652L8.63014 7.16122C8.87671 7.39572 8.99119 7.68433 9 8C9 8.31567 8.87671 8.58625 8.63014 8.82976L1.77886 15.6933Z" fill="white"/>
</svg>
