<svg width="23" height="16" viewBox="0 0 23 16" fill="none" xmlns="http://www.w3.org/2000/svg">
<g clip-path="url(#clip0_45_1646)">
<mask id="mask0_45_1646" style="mask-type:luminance" maskUnits="userSpaceOnUse" x="0" y="0" width="23" height="16">
<path d="M20.7792 0.00793457H1.5984C0.715629 0.00793457 0 0.723563 0 1.60634V14.3935C0 15.2763 0.715629 15.992 1.5984 15.992H20.7792C21.662 15.992 22.3776 15.2763 22.3776 14.3935V1.60634C22.3776 0.723563 21.662 0.00793457 20.7792 0.00793457Z" fill="white"/>
</mask>
<g mask="url(#mask0_45_1646)">
<path d="M20.7792 0.207764H1.59843C0.826004 0.207764 0.199829 0.833939 0.199829 1.60636V14.3936C0.199829 15.166 0.826004 15.7922 1.59843 15.7922H20.7792C21.5517 15.7922 22.1779 15.166 22.1779 14.3936V1.60636C22.1779 0.833939 21.5517 0.207764 20.7792 0.207764Z" fill="white" stroke="#F5F5F5" stroke-width="14.2857"/>
<mask id="mask1_45_1646" style="mask-type:alpha" maskUnits="userSpaceOnUse" x="-7" y="-7" width="37" height="30">
<path d="M20.7792 0.207764H1.59843C0.826004 0.207764 0.199829 0.833939 0.199829 1.60636V14.3936C0.199829 15.166 0.826004 15.7922 1.59843 15.7922H20.7792C21.5517 15.7922 22.1779 15.166 22.1779 14.3936V1.60636C22.1779 0.833939 21.5517 0.207764 20.7792 0.207764Z" fill="white" stroke="white" stroke-width="14.2857"/>
</mask>
<g mask="url(#mask1_45_1646)">
<path d="M22.3776 0.00793457H15.984V15.992H22.3776V0.00793457Z" fill="#FF3131"/>
<path fill-rule="evenodd" clip-rule="evenodd" d="M0 15.992H6.39361V0.00793457H0V15.992Z" fill="#FF3131"/>
<path fill-rule="evenodd" clip-rule="evenodd" d="M12.8766 7.37784C12.6902 7.56421 12.3753 7.39568 12.427 7.13721L12.7873 5.33599L11.7216 5.86879L11.1889 4.27039L10.656 5.86879L9.59045 5.33599L9.95065 7.13721C10.0024 7.39568 9.68747 7.56421 9.5011 7.37784L9.24599 7.12277C9.14194 7.01873 8.97331 7.01873 8.86925 7.12277L8.5248 7.46719L7.45923 6.93439L7.99203 7.99998L7.6476 8.34444C7.54357 8.44842 7.54357 8.61713 7.64761 8.72118L9.05762 10.1312H10.656L10.9224 11.7296H11.4552L11.7216 10.1312H13.32L14.73 8.72118C14.8341 8.61713 14.8341 8.44842 14.73 8.34444L14.3857 7.99998L14.9184 6.93439L13.8528 7.46719L13.5084 7.12277C13.4044 7.01873 13.2357 7.01873 13.1316 7.12277L12.8766 7.37784Z" fill="#FF3131"/>
</g>
</g>
</g>
<defs>
<clipPath id="clip0_45_1646">
<rect width="22.3776" height="16" fill="white"/>
</clipPath>
</defs>
</svg>
