<svg width="23" height="16" viewBox="0 0 23 16" fill="none" xmlns="http://www.w3.org/2000/svg">
<mask id="mask0_45_1733" style="mask-type:luminance" maskUnits="userSpaceOnUse" x="0" y="0" width="23" height="16">
<path d="M20.7792 0.00793457H1.5984C0.715629 0.00793457 0 0.723563 0 1.60634V14.3935C0 15.2763 0.715629 15.992 1.5984 15.992H20.7792C21.662 15.992 22.3776 15.2763 22.3776 14.3935V1.60634C22.3776 0.723563 21.662 0.00793457 20.7792 0.00793457Z" fill="white"/>
</mask>
<g mask="url(#mask0_45_1733)">
<path d="M20.7792 0.00793457H1.5984C0.715629 0.00793457 0 0.723563 0 1.60634V14.3935C0 15.2763 0.715629 15.992 1.5984 15.992H20.7792C21.662 15.992 22.3776 15.2763 22.3776 14.3935V1.60634C22.3776 0.723563 21.662 0.00793457 20.7792 0.00793457Z" fill="white"/>
<mask id="mask1_45_1733" style="mask-type:alpha" maskUnits="userSpaceOnUse" x="0" y="0" width="23" height="16">
<path d="M20.7792 0.00793457H1.5984C0.715629 0.00793457 0 0.723563 0 1.60634V14.3935C0 15.2763 0.715629 15.992 1.5984 15.992H20.7792C21.662 15.992 22.3776 15.2763 22.3776 14.3935V1.60634C22.3776 0.723563 21.662 0.00793457 20.7792 0.00793457Z" fill="white"/>
</mask>
<g mask="url(#mask1_45_1733)">
<path d="M22.3776 0.00793457H0V15.992H22.3776V0.00793457Z" fill="#0A17A7"/>
<path d="M5.59092e-05 -0.258526H-0.720093L-0.173315 0.21014L3.46326 3.3272V4.13318L-0.154786 6.7175L-0.266344 6.79719V6.93428V7.46708V7.94773L0.141248 7.69299L4.33886 5.06948H5.24269L8.85688 7.65104C8.93192 7.70466 9.02191 7.73348 9.11414 7.73348C9.52509 7.73348 9.71418 7.22224 9.40217 6.95482L6.12726 4.14775V3.34177L9.63378 0.837141C9.7738 0.737125 9.85684 0.575648 9.85684 0.40358V0.00787383V-0.472778L9.44925 -0.218033L5.25166 2.40548H4.34784L0.687699 -0.208905L0.618228 -0.258526H0.532857H5.59092e-05Z" fill="#FF2E3B" stroke="white"/>
<path fill-rule="evenodd" clip-rule="evenodd" d="M0 2.67193V4.80314H3.72961V7.46714C3.72961 7.7614 3.96814 7.99994 4.2624 7.99994H5.32801C5.62227 7.99994 5.8608 7.7614 5.8608 7.46714V4.80314H9.59041C9.88468 4.80314 10.1232 4.56459 10.1232 4.27034V3.20474C10.1232 2.91048 9.88468 2.67193 9.59041 2.67193H5.8608V0.00793457H3.72961V2.67193H0Z" fill="white"/>
<path fill-rule="evenodd" clip-rule="evenodd" d="M0 3.20474H4.2624V2.67193V0.00793457H5.32801V2.67193V3.20474H9.59041V4.27034H5.32801V4.80314V7.46714H4.2624V4.80314V4.27034H0V3.20474Z" fill="#FF2E3B"/>
<path fill-rule="evenodd" clip-rule="evenodd" d="M15.9841 13.8607L15.2306 14.0814L15.4513 13.3279L15.2306 12.5745L15.9841 12.7951L16.7376 12.5745L16.5168 13.3279L16.7376 14.0814L15.9841 13.8607Z" fill="#CA1931"/>
<path fill-rule="evenodd" clip-rule="evenodd" d="M15.9841 3.73746L15.2306 3.95815L15.4513 3.20467L15.2306 2.45117L15.9841 2.67186L16.7376 2.45117L16.5168 3.20467L16.7376 3.95815L15.9841 3.73746Z" fill="#CA1931"/>
<path fill-rule="evenodd" clip-rule="evenodd" d="M19.1809 6.93424L18.4274 7.15493L18.648 6.40144L18.4274 5.64795L19.1809 5.86864L19.9343 5.64795L19.7136 6.40144L19.9343 7.15493L19.1809 6.93424Z" fill="#CA1931"/>
<path fill-rule="evenodd" clip-rule="evenodd" d="M12.7873 7.99992L12.0338 8.22058L12.2545 7.46712L12.0338 6.71362L12.7873 6.93432L13.5408 6.71362L13.32 7.46712L13.5408 8.22058L12.7873 7.99992Z" fill="#CA1931"/>
</g>
</g>
</svg>
