<svg width="20" height="20" viewBox="0 0 20 20" fill="none" xmlns="http://www.w3.org/2000/svg">
<circle cx="10" cy="10" r="9.5" fill="#E39F02" stroke="#B78105"/>
<path d="M8.24919 14.4889C9.24831 13.9898 9.49927 13.2401 9.49927 11.9914V10.9934H11.9994V9.49395H9.49927V7.49551C9.49927 6.03124 10.2521 5.24873 11.4999 5.24873C12.105 5.24873 12.4568 5.6845 13.0009 5.99844V4.25068C12.4169 4.02577 12.2082 4 11.4999 4C10.4491 4 9.42422 4.31863 8.76283 4.95588C8.10378 5.59078 8.00059 6.50449 8.00059 7.49785V9.49629H6V10.9957H8.00059V12.4951C8.00059 13.4932 7.00147 14.4936 6 14.4936L6.00704 16H13.9977L14 14.4936H8.24919V14.4889Z" fill="white"/>
</svg>
