<svg width="20" height="20" viewBox="0 0 20 20" fill="none" xmlns="http://www.w3.org/2000/svg">
<circle cx="10" cy="10" r="9.5" fill="#E39F02" stroke="#B78105"/>
<path fill-rule="evenodd" clip-rule="evenodd" d="M10.2 4C10.5535 4 10.84 4.29848 10.84 4.66667V4.9482C12.2313 5.20771 13.4 6.29654 13.4 7.77778C13.4 8.14596 13.1135 8.44444 12.76 8.44444C12.4065 8.44444 12.12 8.14596 12.12 7.77778C12.12 7.02732 11.3746 6.22222 10.2 6.22222C9.02539 6.22222 8.28 7.02732 8.28 7.77778C8.28 8.52827 9.02539 9.33333 10.2 9.33333C11.8531 9.33333 13.4 10.518 13.4 12.2222C13.4 13.7035 12.2313 14.7923 10.84 15.0518V15.3333C10.84 15.7015 10.5535 16 10.2 16C9.84655 16 9.56 15.7015 9.56 15.3333V15.0518C8.1687 14.7923 7 13.7035 7 12.2222C7 11.854 7.28654 11.5556 7.64 11.5556C7.99346 11.5556 8.28 11.854 8.28 12.2222C8.28 12.9727 9.02539 13.7778 10.2 13.7778C11.3746 13.7778 12.12 12.9727 12.12 12.2222C12.12 11.4717 11.3746 10.6667 10.2 10.6667C8.54692 10.6667 7 9.48196 7 7.77778C7 6.29654 8.1687 5.20771 9.56 4.9482V4.66667C9.56 4.29848 9.84655 4 10.2 4Z" fill="white"/>
</svg>
