<svg width="25" height="24" viewBox="0 0 25 24" fill="none" xmlns="http://www.w3.org/2000/svg">
<path d="M11.875 16C11.875 16.5523 12.3227 17 12.875 17C13.4273 17 13.875 16.5523 13.875 16H11.875ZM9.09067 14.3922C9.62996 14.2731 9.97058 13.7394 9.85147 13.2001C9.73235 12.6608 9.19862 12.3202 8.65933 12.4393L9.09067 14.3922ZM17.0907 12.4393C16.5514 12.3202 16.0176 12.6608 15.8985 13.2001C15.7794 13.7394 16.12 14.2731 16.6593 14.3922L17.0907 12.4393ZM15.875 7C15.875 8.65685 14.5319 10 12.875 10V12C15.6364 12 17.875 9.76142 17.875 7H15.875ZM12.875 10C11.2181 10 9.875 8.65685 9.875 7H7.875C7.875 9.76142 10.1136 12 12.875 12V10ZM9.875 7C9.875 5.34315 11.2181 4 12.875 4V2C10.1136 2 7.875 4.23858 7.875 7H9.875ZM12.875 4C14.5319 4 15.875 5.34315 15.875 7H17.875C17.875 4.23858 15.6364 2 12.875 2V4ZM11.875 11V16H13.875V11H11.875ZM20.875 17C20.875 17.2269 20.7757 17.5183 20.4433 17.8676C20.1061 18.222 19.5708 18.5866 18.8328 18.9146C17.3594 19.5694 15.2539 20 12.875 20V22C15.4667 22 17.8611 21.5351 19.6451 20.7422C20.5358 20.3463 21.3185 19.8491 21.8921 19.2463C22.4706 18.6385 22.875 17.8777 22.875 17H20.875ZM12.875 20C10.4961 20 8.39058 19.5694 6.91718 18.9146C6.17922 18.5866 5.64392 18.222 5.30666 17.8676C4.9743 17.5183 4.875 17.2269 4.875 17H2.875C2.875 17.8777 3.27938 18.6385 3.85787 19.2463C4.43145 19.8491 5.21418 20.3463 6.1049 20.7422C7.88886 21.5351 10.2833 22 12.875 22V20ZM4.875 17C4.875 16.6824 5.08305 16.2134 5.83856 15.6826C6.57629 15.1644 7.69044 14.7015 9.09067 14.3922L8.65933 12.4393C7.09613 12.7846 5.71028 13.3285 4.68886 14.0461C3.68523 14.7512 2.875 15.747 2.875 17H4.875ZM16.6593 14.3922C18.0596 14.7015 19.1737 15.1644 19.9114 15.6826C20.667 16.2134 20.875 16.6824 20.875 17H22.875C22.875 15.747 22.0648 14.7512 21.0611 14.0461C20.0397 13.3285 18.6539 12.7846 17.0907 12.4393L16.6593 14.3922Z" fill="#5A5265"/>
</svg>
