<svg width="25" height="20" viewBox="0 0 25 20" fill="none" xmlns="http://www.w3.org/2000/svg">
<g clip-path="url(#clip0_45_1973)">
<path d="M21.7341 6.41382H18.8624C16.8935 6.41382 15.2974 7.89586 15.2974 9.72416C15.2974 11.5525 16.8935 13.0345 18.8624 13.0345H21.7341C21.8261 13.0345 21.872 13.0345 21.9109 13.0322C22.506 12.9959 22.9799 12.5558 23.019 12.0032C23.0215 11.9671 23.0215 11.9244 23.0215 11.8391V7.60918C23.0215 7.52389 23.0215 7.48114 23.019 7.4451C22.9799 6.89254 22.506 6.45239 21.9109 6.41618C21.872 6.41382 21.8261 6.41382 21.7341 6.41382Z" stroke="#5A5265" stroke-width="2"/>
<path d="M21.8795 6.41385C21.7938 4.34786 21.5172 3.08116 20.6254 2.18937C19.3327 0.896606 17.2519 0.896606 13.0906 0.896606H9.78022C5.61885 0.896606 3.53818 0.896606 2.2454 2.18937C0.952637 3.48215 0.952637 5.56282 0.952637 9.72419C0.952637 13.8855 0.952637 15.9663 2.2454 17.259C3.53818 18.5518 5.61885 18.5518 9.78022 18.5518H13.0906C17.2519 18.5518 19.3327 18.5518 20.6254 17.259C21.5172 16.3673 21.7938 15.1005 21.8795 13.0345" stroke="#5A5265" stroke-width="2"/>
<path d="M17.4946 10H17.5045" stroke="#5A5265" stroke-width="2" stroke-linecap="round" stroke-linejoin="round"/>
</g>
<defs>
<clipPath id="clip0_45_1973">
<rect width="24" height="19.8621" fill="white" transform="translate(0.125 0.0689697)"/>
</clipPath>
</defs>
</svg>
