<svg width="20" height="20" viewBox="0 0 20 20" fill="none" xmlns="http://www.w3.org/2000/svg">
<circle cx="10" cy="10" r="9.5" fill="#E39F02" stroke="#B78105"/>
<path d="M6.2286 4.12004C6.48108 3.92121 6.83924 3.97494 7.0286 4.24003L10 8.40002L12.9714 4.24003C13.1608 3.97494 13.5189 3.92121 13.7714 4.12004C14.0239 4.31886 14.075 4.69494 13.8857 4.96003L10.7143 9.40002H12.8571C13.1727 9.40002 13.4285 9.66864 13.4285 10C13.4285 10.3314 13.1727 10.6 12.8571 10.6H10.5714V11.8H12.8571C13.1727 11.8 13.4285 12.0686 13.4285 12.4C13.4285 12.7314 13.1727 13 12.8571 13H10.5714V15.4C10.5714 15.7314 10.3156 16 10 16C9.6844 16 9.42858 15.7314 9.42858 15.4V13H7.14288C6.82729 13 6.57146 12.7314 6.57146 12.4C6.57146 12.0686 6.82729 11.8 7.14288 11.8H9.42858V10.6H7.14288C6.82729 10.6 6.57146 10.3314 6.57146 10C6.57146 9.66864 6.82729 9.40002 7.14288 9.40002H9.28572L6.11432 4.96003C5.92497 4.69494 5.97613 4.31886 6.2286 4.12004Z" fill="white"/>
</svg>
